<mxfile host="app.diagrams.net" modified="2023-06-24T04:59:24.548Z" agent="Mozilla/5.0 (Windows NT 10.0; Win64; x64) AppleWebKit/537.36 (KHTML, like Gecko) Chrome/114.0.0.0 Safari/537.36" etag="R9sDFBNuI76pBh21XWSP" version="21.5.0" type="device">
  <diagram id="C5RBs43oDa-KdzZeNtuy" name="Page-1">
    <mxGraphModel dx="525" dy="275" grid="1" gridSize="10" guides="1" tooltips="1" connect="1" arrows="1" fold="1" page="1" pageScale="1" pageWidth="827" pageHeight="1169" math="0" shadow="0">
      <root>
        <mxCell id="WIyWlLk6GJQsqaUBKTNV-0" />
        <mxCell id="WIyWlLk6GJQsqaUBKTNV-1" parent="WIyWlLk6GJQsqaUBKTNV-0" />
        <mxCell id="MNfvOwnNZIM0DjfTxmPu-37" value="" style="edgeStyle=orthogonalEdgeStyle;rounded=0;orthogonalLoop=1;jettySize=auto;html=1;" edge="1" parent="WIyWlLk6GJQsqaUBKTNV-1" source="WIyWlLk6GJQsqaUBKTNV-3" target="MNfvOwnNZIM0DjfTxmPu-27">
          <mxGeometry relative="1" as="geometry" />
        </mxCell>
        <mxCell id="WIyWlLk6GJQsqaUBKTNV-3" value="scenarioBER.m" style="rounded=1;whiteSpace=wrap;html=1;fontSize=12;glass=0;strokeWidth=1;shadow=0;" parent="WIyWlLk6GJQsqaUBKTNV-1" vertex="1">
          <mxGeometry x="280" width="240" height="40" as="geometry" />
        </mxCell>
        <mxCell id="MNfvOwnNZIM0DjfTxmPu-3" value="" style="edgeStyle=orthogonalEdgeStyle;rounded=0;orthogonalLoop=1;jettySize=auto;html=1;" edge="1" parent="WIyWlLk6GJQsqaUBKTNV-1" source="MNfvOwnNZIM0DjfTxmPu-0" target="MNfvOwnNZIM0DjfTxmPu-2">
          <mxGeometry relative="1" as="geometry" />
        </mxCell>
        <mxCell id="MNfvOwnNZIM0DjfTxmPu-0" value="Se generan bits aleatorios con GenerateBits()" style="rounded=1;whiteSpace=wrap;html=1;" vertex="1" parent="WIyWlLk6GJQsqaUBKTNV-1">
          <mxGeometry x="340" y="190" width="120" height="60" as="geometry" />
        </mxCell>
        <mxCell id="MNfvOwnNZIM0DjfTxmPu-5" value="" style="edgeStyle=orthogonalEdgeStyle;rounded=0;orthogonalLoop=1;jettySize=auto;html=1;" edge="1" parent="WIyWlLk6GJQsqaUBKTNV-1" source="MNfvOwnNZIM0DjfTxmPu-2" target="MNfvOwnNZIM0DjfTxmPu-4">
          <mxGeometry relative="1" as="geometry" />
        </mxCell>
        <mxCell id="MNfvOwnNZIM0DjfTxmPu-2" value="Se modulan según la modulación elegida con Modulate()" style="rounded=1;whiteSpace=wrap;html=1;" vertex="1" parent="WIyWlLk6GJQsqaUBKTNV-1">
          <mxGeometry x="340" y="280" width="120" height="60" as="geometry" />
        </mxCell>
        <mxCell id="MNfvOwnNZIM0DjfTxmPu-7" value="" style="edgeStyle=orthogonalEdgeStyle;rounded=0;orthogonalLoop=1;jettySize=auto;html=1;" edge="1" parent="WIyWlLk6GJQsqaUBKTNV-1" source="MNfvOwnNZIM0DjfTxmPu-4" target="MNfvOwnNZIM0DjfTxmPu-6">
          <mxGeometry relative="1" as="geometry" />
        </mxCell>
        <mxCell id="MNfvOwnNZIM0DjfTxmPu-4" value="Se le insertan las señales piloto con la separación elegida, usando insertPilot()" style="rounded=1;whiteSpace=wrap;html=1;" vertex="1" parent="WIyWlLk6GJQsqaUBKTNV-1">
          <mxGeometry x="340" y="380" width="120" height="60" as="geometry" />
        </mxCell>
        <mxCell id="MNfvOwnNZIM0DjfTxmPu-9" value="" style="edgeStyle=orthogonalEdgeStyle;rounded=0;orthogonalLoop=1;jettySize=auto;html=1;" edge="1" parent="WIyWlLk6GJQsqaUBKTNV-1" source="MNfvOwnNZIM0DjfTxmPu-6" target="MNfvOwnNZIM0DjfTxmPu-8">
          <mxGeometry relative="1" as="geometry" />
        </mxCell>
        <mxCell id="MNfvOwnNZIM0DjfTxmPu-6" value="Se generan los coeficientes del canal según la escena con create_channel()" style="rounded=1;whiteSpace=wrap;html=1;" vertex="1" parent="WIyWlLk6GJQsqaUBKTNV-1">
          <mxGeometry x="338" y="480" width="124" height="60" as="geometry" />
        </mxCell>
        <mxCell id="MNfvOwnNZIM0DjfTxmPu-11" value="" style="edgeStyle=orthogonalEdgeStyle;rounded=0;orthogonalLoop=1;jettySize=auto;html=1;" edge="1" parent="WIyWlLk6GJQsqaUBKTNV-1" source="MNfvOwnNZIM0DjfTxmPu-8" target="MNfvOwnNZIM0DjfTxmPu-10">
          <mxGeometry relative="1" as="geometry" />
        </mxCell>
        <mxCell id="MNfvOwnNZIM0DjfTxmPu-8" value="Se multiplican los coeficientes del canal por la señal a enviar" style="rounded=1;whiteSpace=wrap;html=1;" vertex="1" parent="WIyWlLk6GJQsqaUBKTNV-1">
          <mxGeometry x="330" y="580" width="140" height="80" as="geometry" />
        </mxCell>
        <mxCell id="MNfvOwnNZIM0DjfTxmPu-14" value="snr &amp;lt;= 30" style="edgeStyle=orthogonalEdgeStyle;rounded=0;orthogonalLoop=1;jettySize=auto;html=1;" edge="1" parent="WIyWlLk6GJQsqaUBKTNV-1" source="MNfvOwnNZIM0DjfTxmPu-10" target="MNfvOwnNZIM0DjfTxmPu-13">
          <mxGeometry y="30" relative="1" as="geometry">
            <mxPoint as="offset" />
          </mxGeometry>
        </mxCell>
        <mxCell id="MNfvOwnNZIM0DjfTxmPu-31" value="snr &amp;gt; 30" style="edgeStyle=orthogonalEdgeStyle;rounded=0;orthogonalLoop=1;jettySize=auto;html=1;" edge="1" parent="WIyWlLk6GJQsqaUBKTNV-1" source="MNfvOwnNZIM0DjfTxmPu-10" target="MNfvOwnNZIM0DjfTxmPu-30">
          <mxGeometry x="0.2" y="20" relative="1" as="geometry">
            <mxPoint as="offset" />
          </mxGeometry>
        </mxCell>
        <mxCell id="MNfvOwnNZIM0DjfTxmPu-10" value="Desde snr = -2&lt;br&gt;Hasta&amp;nbsp; 30&lt;br&gt;Incremento&amp;nbsp; 1" style="shape=hexagon;perimeter=hexagonPerimeter2;whiteSpace=wrap;html=1;fixedSize=1;" vertex="1" parent="WIyWlLk6GJQsqaUBKTNV-1">
          <mxGeometry x="340" y="700" width="120" height="80" as="geometry" />
        </mxCell>
        <mxCell id="MNfvOwnNZIM0DjfTxmPu-16" value="" style="edgeStyle=orthogonalEdgeStyle;rounded=0;orthogonalLoop=1;jettySize=auto;html=1;" edge="1" parent="WIyWlLk6GJQsqaUBKTNV-1" source="MNfvOwnNZIM0DjfTxmPu-13" target="MNfvOwnNZIM0DjfTxmPu-15">
          <mxGeometry relative="1" as="geometry" />
        </mxCell>
        <mxCell id="MNfvOwnNZIM0DjfTxmPu-13" value="Añadir AGWN para tener una señal de snr dB" style="rounded=1;whiteSpace=wrap;html=1;" vertex="1" parent="WIyWlLk6GJQsqaUBKTNV-1">
          <mxGeometry x="340" y="820" width="120" height="60" as="geometry" />
        </mxCell>
        <mxCell id="MNfvOwnNZIM0DjfTxmPu-18" value="" style="edgeStyle=orthogonalEdgeStyle;rounded=0;orthogonalLoop=1;jettySize=auto;html=1;" edge="1" parent="WIyWlLk6GJQsqaUBKTNV-1" source="MNfvOwnNZIM0DjfTxmPu-15" target="MNfvOwnNZIM0DjfTxmPu-17">
          <mxGeometry relative="1" as="geometry" />
        </mxCell>
        <mxCell id="MNfvOwnNZIM0DjfTxmPu-15" value="Se separan los símbolos y las señales pilotos recibidas con separatePilot()" style="rounded=1;whiteSpace=wrap;html=1;" vertex="1" parent="WIyWlLk6GJQsqaUBKTNV-1">
          <mxGeometry x="320" y="920" width="160" height="60" as="geometry" />
        </mxCell>
        <mxCell id="MNfvOwnNZIM0DjfTxmPu-20" value="" style="edgeStyle=orthogonalEdgeStyle;rounded=0;orthogonalLoop=1;jettySize=auto;html=1;" edge="1" parent="WIyWlLk6GJQsqaUBKTNV-1" source="MNfvOwnNZIM0DjfTxmPu-17" target="MNfvOwnNZIM0DjfTxmPu-19">
          <mxGeometry relative="1" as="geometry" />
        </mxCell>
        <mxCell id="MNfvOwnNZIM0DjfTxmPu-17" value="Se estima el canal con las interpolaciones usando channel_estimate" style="rounded=1;whiteSpace=wrap;html=1;" vertex="1" parent="WIyWlLk6GJQsqaUBKTNV-1">
          <mxGeometry x="140" y="920" width="160" height="60" as="geometry" />
        </mxCell>
        <mxCell id="MNfvOwnNZIM0DjfTxmPu-22" value="" style="edgeStyle=orthogonalEdgeStyle;rounded=0;orthogonalLoop=1;jettySize=auto;html=1;" edge="1" parent="WIyWlLk6GJQsqaUBKTNV-1" source="MNfvOwnNZIM0DjfTxmPu-19" target="MNfvOwnNZIM0DjfTxmPu-21">
          <mxGeometry relative="1" as="geometry" />
        </mxCell>
        <mxCell id="MNfvOwnNZIM0DjfTxmPu-19" value="Se ecualiza la señal y se demodula con Demodulate" style="rounded=1;whiteSpace=wrap;html=1;" vertex="1" parent="WIyWlLk6GJQsqaUBKTNV-1">
          <mxGeometry x="160" y="820" width="120" height="60" as="geometry" />
        </mxCell>
        <mxCell id="MNfvOwnNZIM0DjfTxmPu-29" value="" style="edgeStyle=orthogonalEdgeStyle;rounded=0;orthogonalLoop=1;jettySize=auto;html=1;" edge="1" parent="WIyWlLk6GJQsqaUBKTNV-1" source="MNfvOwnNZIM0DjfTxmPu-21" target="MNfvOwnNZIM0DjfTxmPu-10">
          <mxGeometry relative="1" as="geometry" />
        </mxCell>
        <mxCell id="MNfvOwnNZIM0DjfTxmPu-21" value="Se calcula el BER para cada interpolación por snr" style="rounded=1;whiteSpace=wrap;html=1;" vertex="1" parent="WIyWlLk6GJQsqaUBKTNV-1">
          <mxGeometry x="160" y="710" width="120" height="60" as="geometry" />
        </mxCell>
        <mxCell id="MNfvOwnNZIM0DjfTxmPu-28" value="iter &amp;lt;= 21" style="edgeStyle=orthogonalEdgeStyle;rounded=0;orthogonalLoop=1;jettySize=auto;html=1;" edge="1" parent="WIyWlLk6GJQsqaUBKTNV-1" source="MNfvOwnNZIM0DjfTxmPu-27" target="MNfvOwnNZIM0DjfTxmPu-0">
          <mxGeometry y="40" relative="1" as="geometry">
            <mxPoint as="offset" />
          </mxGeometry>
        </mxCell>
        <mxCell id="MNfvOwnNZIM0DjfTxmPu-34" value="iter &amp;gt; 21" style="edgeStyle=orthogonalEdgeStyle;rounded=0;orthogonalLoop=1;jettySize=auto;html=1;" edge="1" parent="WIyWlLk6GJQsqaUBKTNV-1" source="MNfvOwnNZIM0DjfTxmPu-27" target="MNfvOwnNZIM0DjfTxmPu-33">
          <mxGeometry x="0.1111" y="20" relative="1" as="geometry">
            <mxPoint as="offset" />
          </mxGeometry>
        </mxCell>
        <mxCell id="MNfvOwnNZIM0DjfTxmPu-27" value="Desde iter = 1&lt;br&gt;Hasta 21&lt;br&gt;Incremento 1" style="shape=hexagon;perimeter=hexagonPerimeter2;whiteSpace=wrap;html=1;fixedSize=1;" vertex="1" parent="WIyWlLk6GJQsqaUBKTNV-1">
          <mxGeometry x="340" y="70" width="120" height="80" as="geometry" />
        </mxCell>
        <mxCell id="MNfvOwnNZIM0DjfTxmPu-32" style="edgeStyle=orthogonalEdgeStyle;rounded=0;orthogonalLoop=1;jettySize=auto;html=1;" edge="1" parent="WIyWlLk6GJQsqaUBKTNV-1">
          <mxGeometry relative="1" as="geometry">
            <mxPoint x="589.9999999999998" y="770" as="sourcePoint" />
            <mxPoint x="340" y="110" as="targetPoint" />
            <Array as="points">
              <mxPoint x="590" y="1020" />
              <mxPoint x="100" y="1020" />
              <mxPoint x="100" y="110" />
            </Array>
          </mxGeometry>
        </mxCell>
        <mxCell id="MNfvOwnNZIM0DjfTxmPu-30" value="Se obtienen los BER para la simulación número iter" style="rounded=1;whiteSpace=wrap;html=1;" vertex="1" parent="WIyWlLk6GJQsqaUBKTNV-1">
          <mxGeometry x="530" y="710" width="120" height="60" as="geometry" />
        </mxCell>
        <mxCell id="MNfvOwnNZIM0DjfTxmPu-36" value="" style="edgeStyle=orthogonalEdgeStyle;rounded=0;orthogonalLoop=1;jettySize=auto;html=1;" edge="1" parent="WIyWlLk6GJQsqaUBKTNV-1" source="MNfvOwnNZIM0DjfTxmPu-33" target="MNfvOwnNZIM0DjfTxmPu-35">
          <mxGeometry relative="1" as="geometry" />
        </mxCell>
        <mxCell id="MNfvOwnNZIM0DjfTxmPu-33" value="Se promedian los BER por la cantidad de iteraciones" style="rounded=1;whiteSpace=wrap;html=1;" vertex="1" parent="WIyWlLk6GJQsqaUBKTNV-1">
          <mxGeometry x="550" y="80" width="120" height="60" as="geometry" />
        </mxCell>
        <mxCell id="MNfvOwnNZIM0DjfTxmPu-35" value="Se retorna el BER obtenido para cada simulación" style="rounded=1;whiteSpace=wrap;html=1;" vertex="1" parent="WIyWlLk6GJQsqaUBKTNV-1">
          <mxGeometry x="550" y="190" width="120" height="60" as="geometry" />
        </mxCell>
      </root>
    </mxGraphModel>
  </diagram>
</mxfile>
